<svg xmlns="http://www.w3.org/2000/svg" viewBox="0 0 20 22" width="20" height="22">
	<style>
		tspan { white-space:pre }
		.shp0 { fill: #d8383c } 
	</style>
	<g id="Connect">
		<g id="Text">
			<g id="Group 24">
				<path id="@" class="shp0" d="M16.17 4.32C14.85 2.77 12.95 1.99 10.47 1.99C7.97 1.99 5.97 2.81 4.45 4.46C2.93 6.1 2.11 8.3 1.99 11.04C1.88 13.82 2.52 16.01 3.89 17.61C5.27 19.2 7.22 20 9.76 20C10.4 20 11.05 19.93 11.71 19.78C12.37 19.63 12.92 19.42 13.35 19.15L12.98 17.73C12.57 17.92 12.07 18.08 11.49 18.21C10.91 18.34 10.35 18.4 9.8 18.4C7.84 18.4 6.34 17.75 5.29 16.43C4.24 15.11 3.77 13.32 3.89 11.04C3.98 8.74 4.61 6.91 5.77 5.54C6.92 4.17 8.48 3.49 10.43 3.49C12.47 3.49 13.98 4.12 14.96 5.39C15.94 6.66 16.38 8.43 16.27 10.7C16.22 11.77 15.97 12.66 15.53 13.36C15.08 14.06 14.49 14.41 13.75 14.41C13.52 14.41 13.34 14.29 13.21 14.07C13.07 13.84 13.03 13.42 13.07 12.82L13.56 7.3L13.51 7.3L13.54 7.26C13 6.92 12.5 6.66 12.05 6.49C11.6 6.33 11.01 6.24 10.26 6.24C9.18 6.24 8.26 6.73 7.49 7.72C6.73 8.7 6.27 10 6.11 11.64C5.99 12.89 6.17 13.9 6.65 14.67C7.14 15.43 7.83 15.81 8.73 15.81C9.3 15.81 9.79 15.68 10.21 15.42C10.63 15.16 10.98 14.76 11.26 14.24C11.42 14.74 11.68 15.14 12.04 15.42C12.41 15.7 12.84 15.84 13.34 15.84C14.86 15.84 16 15.34 16.76 14.32C17.53 13.31 17.94 12.1 17.99 10.7C18.1 8.01 17.49 5.88 16.17 4.32ZM9.01 8.83C9.38 8.21 9.93 7.9 10.64 7.9C10.79 7.9 10.94 7.91 11.09 7.94C11.25 7.96 11.39 8 11.54 8.04L11.12 12.82C11.12 12.83 11.12 12.85 11.11 12.88C11.11 12.9 11.11 12.92 11.11 12.94C10.88 13.38 10.62 13.69 10.33 13.86C10.03 14.03 9.71 14.12 9.35 14.12C8.94 14.12 8.64 13.91 8.46 13.49C8.28 13.07 8.22 12.45 8.28 11.64C8.4 10.38 8.64 9.45 9.01 8.83Z" />
			</g>
		</g>
	</g>
</svg>