<svg xmlns="http://www.w3.org/2000/svg" viewBox="0 0 19 20" width="19" height="20">
	<style>
		tspan { white-space:pre }
		.shp0 { fill: #d8383c } 
	</style>
	<g id="Connect">
		<g id="Text">
			<g id="Group 24">
				<path id="Color Fill 3" fill-rule="evenodd" class="shp0" d="M5.22 12.97C5.8 12.41 6.64 12.97 6.64 12.97L8.06 14.47L3.8 19C3.8 19 3.23 18.39 2.38 17.49C1.53 16.59 2.38 12.97 2.38 12.97L6.64 6.93L12.32 2.41C12.32 2.41 15.73 1.51 16.58 2.41C17.43 3.31 18 3.92 18 3.92L13.74 8.44L12.32 6.93C12.32 6.93 11.8 6.04 12.32 5.42C12.85 4.8 8.77 9.19 8.77 9.19C8.77 9.19 4.64 13.53 5.22 12.97Z" />
			</g>
		</g>
	</g>
</svg>