<svg xmlns="http://www.w3.org/2000/svg" viewBox="0 0 171 55" width="171" height="55">
	<style>
		tspan { white-space:pre }
		.shp0 { opacity: 0.251;fill: #d8383c } 
	</style>
	<g id="Inform">
		<g id="Title">
			<path id="Shape 2 copy" class="shp0" d="M142.94 14.26C148.27 15.36 153.87 20.56 150.82 26.37C147.14 33.37 137.28 28.27 133.82 24.12C130.31 19.92 129.34 12.63 133.92 8.85C139.1 4.58 146.78 4.86 152.92 6.41C166.01 9.71 169.77 29.13 161.91 39.13C150.33 53.87 126.47 43.86 112.67 38.91C103.29 35.54 93.12 31.64 83.03 33.47C80.01 34.02 75.29 35.45 77.34 39.38C78.57 41.73 80.59 42.5 83.01 43.11C84.33 43.44 85.78 43.62 87.14 43.36C89.62 42.87 86.76 36.33 84.61 40.46C83.93 41.79 81.89 40.7 82.58 39.37C85.27 34.18 90.92 37.93 90.21 42.84C89.4 48.39 79.58 45.21 77.13 42.92C73.44 39.45 73.66 34.73 78.26 32.53C83.08 30.22 89.1 30.32 94.24 31.17C105.03 32.96 115.15 37.61 125.5 40.94C134.6 43.87 144.75 45.97 153.96 42.38C162.8 38.93 164.8 28.19 162.73 19.87C160.43 10.59 152.29 7.27 143.47 7.78C140.38 7.95 137.15 8.91 134.88 11.1C131.91 13.98 133.15 18.77 135.02 21.88C137.53 26.05 144.49 29.69 148.55 25.6C152.44 21.68 145.47 17.15 142.42 16.52C140.96 16.22 141.49 13.96 142.94 14.26L142.94 14.26ZM162.14 36.93C144.81 36.84 127.78 34.37 111.77 27.5C101.54 23.11 92.2 16.82 81.78 12.88C70.7 8.68 58.14 5.1 46.21 5.99C41.13 6.37 35.71 8.27 34.25 13.7C32.58 19.91 36.57 24.02 42.11 25.79C49.19 28.05 63.41 27.46 65.02 18.01C66.31 10.42 53.9 8.08 49.55 12.28C44.27 17.38 55.91 22.92 58.49 15.07C58.95 13.66 61.19 14.17 60.73 15.6C56.96 27.1 39.57 18.71 48.44 10.15C52.81 5.93 60.62 7.77 64.76 11.26C68.56 14.47 67.79 19.99 64.98 23.52C58.91 31.12 44.37 30.56 36.83 25.94C28.87 21.06 30.48 8.93 38.77 5.38C47 1.87 57.15 3.76 65.56 5.62C73.81 7.44 81.96 10.1 89.6 13.74C98.69 18.06 107.26 23.32 116.65 27.02C131.08 32.72 146.64 34.54 162.05 34.62C163.53 34.62 163.62 36.94 162.14 36.93L162.14 36.93ZM107.08 25.31C97.11 22.69 87.42 23.63 78.17 28.15C71.86 31.23 66.45 35.86 60.13 38.9C51.29 43.15 41.3 44.91 31.67 46.31C25.43 47.22 18.84 47.55 12.88 45.02C1.59 40.24 1.13 25.62 12.47 20.55C17.11 18.48 22.41 18.19 26.67 21.27C31.3 24.62 32.03 31.55 28.95 36.07C23.75 43.71 11.27 43.15 10.38 32.65C10 28.18 15.06 24.89 19.02 25.97C23.44 27.17 23.04 32.43 20.26 34.94C19.16 35.93 17.46 34.36 18.57 33.37C21.94 30.32 18.8 26.75 15.08 28.65C11.12 30.69 12.82 35.44 15.25 37.79C18.44 40.87 23.46 38.49 26.07 35.95C31.66 30.5 27.14 21.7 20.01 21.26C14.69 20.93 8.32 24.37 6.62 29.63C3.99 37.77 11.39 42.76 18.17 44.16C25.69 45.72 33.83 43.82 41.19 42.35C49.7 40.65 57.9 38.06 65.21 33.3C70.76 29.69 76.23 26.12 82.47 23.8C90.59 20.77 99.3 20.87 107.61 23.05C109.04 23.43 108.52 25.69 107.08 25.31L107.08 25.31Z" />
		</g>
	</g>
</svg>