<svg xmlns="http://www.w3.org/2000/svg" viewBox="0 0 171 55" width="171" height="55">
	<style>
		tspan { white-space:pre }
		.shp0 { opacity: 0.251;fill: #d8383c } 
	</style>
	<g id="Inform">
		<g id="Title">
			<path id="Shape 2" class="shp0" d="M28.06 13.84C22.73 14.94 17.13 20.14 20.18 25.95C23.86 32.95 33.72 27.85 37.18 23.7C40.69 19.5 41.66 12.21 37.08 8.43C31.9 4.16 24.22 4.44 18.08 5.99C4.99 9.29 1.23 28.71 9.09 38.71C20.67 53.45 44.53 43.44 58.33 38.49C67.71 35.12 77.88 31.22 87.97 33.05C90.99 33.6 95.71 35.03 93.66 38.96C92.43 41.31 90.41 42.08 87.99 42.69C86.67 43.02 85.22 43.2 83.86 42.94C81.38 42.45 84.24 35.91 86.39 40.04C87.07 41.37 89.11 40.28 88.42 38.95C85.73 33.76 80.08 37.51 80.79 42.42C81.6 47.97 91.42 44.79 93.87 42.5C97.56 39.03 97.34 34.31 92.74 32.11C87.92 29.8 81.9 29.9 76.76 30.75C65.97 32.54 55.85 37.19 45.5 40.52C36.4 43.45 26.25 45.55 17.04 41.96C8.2 38.51 6.2 27.77 8.27 19.45C10.57 10.17 18.71 6.85 27.53 7.36C30.62 7.53 33.85 8.49 36.12 10.68C39.09 13.56 37.85 18.35 35.98 21.45C33.47 25.63 26.51 29.27 22.45 25.18C18.56 21.26 25.53 16.73 28.58 16.1C30.04 15.8 29.51 13.54 28.06 13.84L28.06 13.84ZM8.86 36.51C26.19 36.42 43.22 33.95 59.23 27.08C69.46 22.69 78.8 16.4 89.22 12.46C100.3 8.26 112.86 4.68 124.79 5.57C129.87 5.95 135.29 7.85 136.75 13.28C138.42 19.49 134.43 23.6 128.89 25.37C121.81 27.63 107.59 27.04 105.98 17.59C104.69 10 117.1 7.66 121.45 11.86C126.73 16.96 115.09 22.5 112.51 14.65C112.05 13.24 109.81 13.75 110.27 15.18C114.04 26.68 131.43 18.29 122.56 9.73C118.19 5.51 110.38 7.35 106.24 10.84C102.44 14.05 103.21 19.57 106.02 23.1C112.09 30.7 126.63 30.14 134.17 25.52C142.13 20.64 140.52 8.51 132.23 4.96C124 1.45 113.85 3.34 105.44 5.2C97.19 7.02 89.04 9.68 81.4 13.32C72.31 17.64 63.74 22.89 54.35 26.6C39.92 32.3 24.36 34.12 8.95 34.2C7.47 34.2 7.38 36.52 8.86 36.51L8.86 36.51ZM63.92 24.89C73.89 22.27 83.58 23.21 92.83 27.73C99.14 30.81 104.55 35.44 110.87 38.48C119.71 42.73 129.7 44.49 139.33 45.89C145.57 46.8 152.16 47.13 158.12 44.6C169.41 39.82 169.87 25.2 158.53 20.13C153.89 18.06 148.59 17.77 144.33 20.85C139.7 24.2 138.97 31.13 142.05 35.65C147.25 43.29 159.73 42.73 160.62 32.23C161 27.76 155.94 24.47 151.98 25.55C147.56 26.75 147.96 32.01 150.74 34.52C151.84 35.51 153.54 33.94 152.43 32.95C149.06 29.9 152.2 26.33 155.92 28.23C159.88 30.27 158.18 35.02 155.75 37.37C152.56 40.45 147.54 38.07 144.93 35.53C139.34 30.08 143.86 21.28 150.99 20.84C156.31 20.51 162.68 23.95 164.38 29.21C167.01 37.35 159.61 42.34 152.83 43.74C145.31 45.3 137.17 43.4 129.81 41.93C121.3 40.23 113.1 37.64 105.79 32.88C100.24 29.27 94.77 25.69 88.53 23.38C80.41 20.35 71.7 20.45 63.39 22.63C61.96 23.01 62.48 25.27 63.92 24.89L63.92 24.89Z" />
		</g>
	</g>
</svg>