<svg xmlns="http://www.w3.org/2000/svg" viewBox="0 0 40 44" width="40" height="44">
	<style>
		tspan { white-space:pre }
		.shp0 { fill: #d8383c } 
	</style>
	<g id="Inform">
		<g id="Title">
			<path id="Ellipse 2 copy 4" class="shp0" d="M20 4.98C25.78 4.98 30.47 9.65 30.47 15.41C30.47 21.18 25.78 25.85 20 25.85C14.22 25.85 9.53 21.18 9.53 15.41C9.53 9.65 14.22 4.98 20 4.98ZM9.53 15.41C9.53 15.41 8.7 27.97 5.8 31.07C2.89 34.17 1.72 35.01 2.06 36.28C2.4 37.56 10.48 38.52 12.52 38.52C14.57 38.52 20 38.52 20 38.52L20 15.41L9.53 15.41ZM30.47 15.41C30.47 15.41 31.29 27.97 34.2 31.07C37.11 34.17 38.28 35.01 37.94 36.28C37.6 37.56 29.52 38.52 27.48 38.52C25.43 38.52 20 38.52 20 38.52L20 15.41L30.47 15.41ZM20 39.27C22.48 39.27 24.48 40.1 24.48 41.13C24.48 42.16 22.48 42.99 20 42.99C17.52 42.99 15.51 42.16 15.51 41.13C15.51 40.1 17.52 39.27 20 39.27ZM20 1.99C21.65 1.99 22.99 3.33 22.99 4.98C22.99 6.62 21.65 7.96 20 7.96C18.35 7.96 17.01 6.62 17.01 4.98C17.01 3.33 18.35 1.99 20 1.99Z" />
		</g>
	</g>
</svg>