<svg xmlns="http://www.w3.org/2000/svg" viewBox="0 0 41 45" width="41" height="45">
	<style>
		tspan { white-space:pre }
		.shp0 { fill: #ffffff } 
	</style>
	<g id="Engage">
		<g id="Group 10">
			<path id="Rectangle 4 copy 2" fill-rule="evenodd" class="shp0" d="M3 14.35L18.75 14.35L18.75 26.96L4.03 26.96L3 14.35ZM18.75 43L5.33 43L4.31 30.4L18.75 30.4L18.75 43ZM38 14.35L36.97 26.96L22.25 26.96L22.25 14.35L38 14.35ZM35.67 43L22.25 43L22.25 30.4L36.69 30.4L35.67 43ZM16.55 3.32C18.16 4.07 19.51 5.04 20.5 6.06C21.49 5.04 22.84 4.07 24.45 3.32C28.52 1.4 32.66 1.59 33.7 3.73C34.74 5.87 32.29 9.16 28.22 11.07C25.29 12.44 22.32 12.73 20.5 11.99C18.68 12.73 15.71 12.44 12.78 11.07C8.71 9.16 6.26 5.87 7.3 3.73C8.34 1.59 12.48 1.4 16.55 3.32ZM10.98 5.46C10.5 6.46 11.75 8.05 13.79 9C15.82 9.96 17.86 9.92 18.35 8.92C18.84 7.92 17.58 6.34 15.55 5.38C13.51 4.43 11.47 4.46 10.98 5.46ZM25.45 5.38C23.42 6.34 22.16 7.92 22.65 8.92C23.14 9.92 25.18 9.96 27.21 9C29.25 8.05 30.5 6.46 30.02 5.46C29.53 4.46 27.49 4.43 25.45 5.38Z" />
		</g>
	</g>
</svg>