<svg xmlns="http://www.w3.org/2000/svg" viewBox="0 0 171 55" width="171" height="55">
	<style>
		tspan { white-space:pre }
		.shp0 { opacity: 0.251;fill: #ffffff } 
	</style>
	<g id="Engage">
		<g id="Group 10">
			<path id="Shape 2" class="shp0" d="M142.94 13.84C148.27 14.94 153.87 20.14 150.82 25.95C147.14 32.95 137.28 27.85 133.82 23.7C130.31 19.49 129.34 12.21 133.92 8.43C139.1 4.16 146.78 4.44 152.92 5.99C166.01 9.29 169.77 28.71 161.91 38.71C150.33 53.45 126.47 43.44 112.67 38.49C103.29 35.12 93.12 31.22 83.03 33.05C80.01 33.6 75.29 35.03 77.34 38.96C78.57 41.31 80.59 42.08 83.01 42.69C84.33 43.02 85.78 43.2 87.14 42.94C89.62 42.45 86.76 35.91 84.61 40.04C83.92 41.37 81.89 40.28 82.58 38.95C85.27 33.76 90.92 37.51 90.21 42.42C89.4 47.97 79.58 44.79 77.13 42.5C73.44 39.03 73.66 34.31 78.26 32.11C83.08 29.8 89.1 29.9 94.24 30.75C105.03 32.54 115.15 37.19 125.5 40.52C134.6 43.45 144.75 45.55 153.96 41.96C162.8 38.51 164.8 27.77 162.73 19.45C160.43 10.17 152.29 6.85 143.47 7.36C140.38 7.53 137.15 8.48 134.88 10.68C131.91 13.56 133.15 18.35 135.02 21.45C137.53 25.63 144.49 29.27 148.55 25.18C152.44 21.26 145.47 16.73 142.42 16.1C140.96 15.8 141.49 13.54 142.94 13.84L142.94 13.84ZM162.14 36.51C144.81 36.42 127.78 33.95 111.77 27.08C101.54 22.69 92.2 16.4 81.78 12.46C70.7 8.26 58.14 4.68 46.21 5.57C41.13 5.95 35.71 7.85 34.25 13.28C32.58 19.49 36.57 23.6 42.11 25.37C49.19 27.63 63.41 27.04 65.02 17.59C66.31 10 53.9 7.66 49.55 11.86C44.27 16.96 55.91 22.5 58.49 14.65C58.95 13.24 61.19 13.75 60.73 15.18C56.96 26.68 39.57 18.29 48.44 9.73C52.81 5.51 60.62 7.35 64.76 10.84C68.56 14.05 67.79 19.57 64.98 23.1C58.91 30.7 44.37 30.14 36.83 25.52C28.87 20.64 30.48 8.51 38.77 4.96C47 1.45 57.15 3.34 65.56 5.2C73.81 7.02 81.96 9.68 89.6 13.32C98.69 17.64 107.26 22.9 116.65 26.6C131.08 32.3 146.64 34.12 162.05 34.2C163.53 34.2 163.62 36.52 162.14 36.51L162.14 36.51ZM107.08 24.89C97.11 22.27 87.42 23.21 78.17 27.73C71.86 30.81 66.45 35.44 60.13 38.48C51.29 42.73 41.3 44.49 31.67 45.89C25.43 46.8 18.84 47.13 12.88 44.6C1.59 39.82 1.13 25.2 12.47 20.13C17.11 18.06 22.41 17.77 26.67 20.85C31.3 24.2 32.02 31.13 28.95 35.65C23.75 43.29 11.27 42.73 10.38 32.23C10 27.76 15.06 24.47 19.02 25.55C23.44 26.75 23.04 32.01 20.26 34.52C19.16 35.51 17.46 33.94 18.57 32.95C21.94 29.9 18.8 26.33 15.08 28.23C11.12 30.27 12.82 35.02 15.25 37.37C18.44 40.45 23.46 38.07 26.07 35.53C31.66 30.08 27.14 21.28 20.01 20.84C14.69 20.51 8.32 23.95 6.62 29.21C3.99 37.35 11.39 42.34 18.17 43.74C25.69 45.3 33.83 43.4 41.19 41.93C49.7 40.23 57.9 37.64 65.21 32.88C70.76 29.27 76.23 25.69 82.47 23.38C90.59 20.35 99.3 20.45 107.61 22.63C109.04 23.01 108.52 25.27 107.08 24.89L107.08 24.89Z" />
		</g>
	</g>
</svg>