<svg xmlns="http://www.w3.org/2000/svg" viewBox="0 0 171 55" width="171" height="55">
	<style>
		tspan { white-space:pre }
		.shp0 { opacity: 0.251;fill: #ffffff } 
	</style>
	<g id="Engage">
		<g id="Group 10">
			<path id="Shape 2 copy" class="shp0" d="M28.06 14.26C22.73 15.36 17.13 20.56 20.18 26.37C23.86 33.37 33.72 28.27 37.18 24.12C40.69 19.92 41.66 12.63 37.08 8.85C31.9 4.58 24.22 4.86 18.08 6.41C4.99 9.71 1.23 29.13 9.09 39.13C20.67 53.87 44.53 43.86 58.33 38.91C67.71 35.54 77.88 31.64 87.97 33.47C90.99 34.02 95.71 35.45 93.66 39.38C92.43 41.73 90.41 42.5 87.99 43.11C86.67 43.44 85.22 43.62 83.86 43.36C81.38 42.87 84.24 36.33 86.39 40.46C87.07 41.79 89.11 40.7 88.42 39.37C85.73 34.18 80.08 37.93 80.79 42.84C81.6 48.39 91.42 45.21 93.87 42.92C97.56 39.45 97.34 34.73 92.74 32.53C87.92 30.22 81.9 30.32 76.76 31.17C65.97 32.96 55.85 37.61 45.5 40.94C36.4 43.87 26.25 45.97 17.04 42.38C8.2 38.93 6.2 28.19 8.27 19.87C10.57 10.59 18.71 7.27 27.53 7.78C30.62 7.95 33.85 8.91 36.12 11.1C39.09 13.98 37.85 18.77 35.98 21.88C33.47 26.05 26.51 29.69 22.45 25.6C18.55 21.68 25.53 17.15 28.58 16.52C30.04 16.22 29.51 13.96 28.06 14.26L28.06 14.26ZM8.86 36.93C26.19 36.84 43.22 34.37 59.23 27.5C69.46 23.11 78.8 16.82 89.22 12.88C100.3 8.68 112.86 5.1 124.79 5.99C129.87 6.37 135.29 8.27 136.75 13.7C138.42 19.91 134.43 24.02 128.89 25.79C121.81 28.05 107.59 27.46 105.98 18.01C104.69 10.42 117.1 8.08 121.45 12.28C126.73 17.38 115.09 22.92 112.51 15.07C112.05 13.66 109.81 14.17 110.27 15.6C114.04 27.1 131.43 18.71 122.56 10.15C118.19 5.93 110.38 7.77 106.24 11.26C102.44 14.47 103.21 19.99 106.02 23.52C112.09 31.12 126.63 30.56 134.17 25.94C142.13 21.06 140.52 8.93 132.23 5.38C124 1.87 113.85 3.76 105.44 5.62C97.19 7.44 89.04 10.1 81.4 13.74C72.31 18.06 63.74 23.32 54.35 27.02C39.92 32.72 24.36 34.54 8.95 34.62C7.47 34.62 7.38 36.94 8.86 36.93L8.86 36.93ZM63.92 25.31C73.89 22.69 83.58 23.63 92.83 28.15C99.14 31.23 104.55 35.86 110.87 38.9C119.71 43.15 129.7 44.91 139.33 46.31C145.57 47.22 152.16 47.55 158.12 45.02C169.41 40.24 169.87 25.62 158.53 20.55C153.89 18.48 148.59 18.19 144.33 21.27C139.7 24.62 138.97 31.55 142.05 36.07C147.25 43.71 159.73 43.15 160.62 32.65C161 28.18 155.94 24.89 151.98 25.97C147.56 27.17 147.96 32.43 150.74 34.94C151.84 35.93 153.54 34.36 152.43 33.37C149.06 30.32 152.2 26.75 155.92 28.65C159.88 30.69 158.18 35.44 155.75 37.79C152.56 40.87 147.54 38.49 144.93 35.95C139.34 30.5 143.86 21.7 150.99 21.26C156.31 20.93 162.68 24.37 164.38 29.63C167.01 37.77 159.61 42.76 152.83 44.16C145.31 45.72 137.17 43.82 129.81 42.35C121.3 40.65 113.1 38.06 105.79 33.3C100.24 29.69 94.77 26.11 88.53 23.8C80.41 20.77 71.7 20.87 63.39 23.05C61.96 23.43 62.48 25.69 63.92 25.31L63.92 25.31Z" />
		</g>
	</g>
</svg>